<svg xmlns="http://www.w3.org/2000/svg" xmlns:xlink="http://www.w3.org/1999/xlink" version="1.0" id="Layer_1" x="0px" y="0px" style="enable-background:new 0 0 347.7 231.3;" xml:space="preserve" fill="#FFFFFF" viewBox="45.6 97.3 56.3 52.2"><g> 	<path class="st0" d="M63,100.2c0.7-1.3-0.3-2.9-0.3-2.9s-0.4,1.4-2.5,1.3v2.7C60.2,101.4,62.3,101.6,63,100.2"></path> 	<path class="st0" d="M52.1,108.1c0,0-1.1-1.3-2.5-0.8c-1.4,0.5-1.4,1.1-2,1.3c-0.6,0.2-1.7,0.1-2-0.2c0.3,0.3,1.8,1.7,3.2,0.9   C50.3,108.2,50.6,107.5,52.1,108.1"></path> 	<path class="st0" d="M45.5,108.4L45.5,108.4L45.5,108.4z"></path> 	<path class="st0" d="M53.9,144.5c0.9-0.1,1.6,0.4,1.6,0.4s0.6-0.1,1.6-2c1.1-2,1.1-3.1,1.2-4.3c0-1.2-1-3.4-1-3.4c-1-0.7-3-3-3-3   c-0.4,1.1-0.5,0.8,0,3.3c0.5,2.5,1.4,2.4,1.8,5C56.5,143,53.9,144.5,53.9,144.5"></path> 	<path class="st0" d="M52.4,145.5c0,0-4.4,0.2-4.4,3.4c0,0,1.2,0.2,3.4,0.2C51.4,149.1,50.2,147.1,52.4,145.5"></path> 	<path class="st0" d="M59.2,105.2c-0.9,0.1-1.5,0.3-1.9-0.1c-0.4-0.4-0.5-0.7-1-0.7c-0.5,0-1-0.1-1-0.1s0.2-0.2,1.1-0.6   c0,0,2,0.2,2.8,0.3c0.8,0.1,1.1,0.2,1.1,0.2S60.1,105.1,59.2,105.2 M100.3,139.1c0.1-0.5,1.6-1.1,1.6-1.1s-0.5-1.5-1-1.9   c-0.5-0.4-1.5-0.1-2.1-0.7c-0.6-0.6-2.8-1.6-3.1-6.9c-0.3-5.3-0.2-5-0.2-5s5.4-3.1,5.2-9.5c-0.2-6.3-7.8-5.8-10.4-3.9   c-2.6,1.9-9,5.2-11.1-0.7c-0.7-1.8,2.6-2.7,2.6-2.7s1.8,0.1,2.8-0.8c1-0.9,0.4-1.1,1.2-1.5c0.8-0.3,1.6-0.1,2.6-1.1   c1-1,1.3-3,1.3-3s-0.9,1.5-2.1,1.4c-1.2-0.1-3.1-1.2-4.6-0.8c-1.4,0.4-1.9,0.9-2.5,2c-0.6,1-0.5,1.3-1.2,1.9   c-0.7,0.5-5.1,6.5,2,9.6c4.7,1.4,8.6-1.8,9.6-2.4c1-0.6,2-1.2,4-1.2c1.9,0,4,1.3,4.1,3.2c0.1,1.9-1.2,4.2-4.2,4.9   c-0.6,0-1.6,0.3-1.6,0.3s-1.7-2.3-9.2-0.6c-7.5,1.7-15.1,2.7-17-3.2c-0.5-5.3,3.4,0.6,3.4,0.6s-0.1-5.2-1.8-5.2c-0.9,0-2-0.8-2-0.8   s0.2-1,0.7-1c0.5,0,1.8,1.5,1.8,1.5s0.4-4-1.1-4.9c-0.8-0.5-1.2-1.1-1.4-1.5c0.6-0.1,1.2-0.3,1.7-0.7c1-0.9,1.5-2,1.6-3.1   c0.1-1.1-0.3-0.5-1-0.1c-0.7,0.4-2,0.6-3,0.6c-1,0-2.1-0.4-2.1-0.4s-0.7,0.9-1.5,1.2c-0.8,0.2-2.7,0.1-4.2,0   c-1.4-0.1-2.2-0.8-3.2-0.5c-1,0.3-1.3,1-2.6,1.3c-1.3,0.3-1.8,0-2.7-0.1c-0.9-0.1-2-0.1-2.2,0.6c-0.2,0.7-0.5,1.7-0.2,2.6   c0.3,0.9,0.5,1.2,2,1.1c1.5-0.1,3.2,0,3.9,0.9c0.7,0.9,0.7,2,0.5,2.6c-0.2,0.6-1.5,0.4-2.2,0.3c-0.7-0.1-1.7-0.5-2.1,0.2   c-0.4,0.7-0.8,3,0.6,2.5c1.4-0.5,5.1-0.3,5.6-0.3H56c0,0-5.2,3.9-5.1,8.7c0,7.4,6.5,12.1,6.5,12.1s-1.1-3.4-0.9-6.4   c0.2-3,1.6-4.3,1.6-4.3s-1.1,3.4-0.1,8c1,4.6,2.2,8.3,1,11.2c-1.2,2.9-2.2,4-2.9,4c-0.7,0-1.8-0.5-2.5-0.2   c-0.6,0.3-1.2,1.1-1.2,1.9c0,0.7-0.2,1.7,0.6,1.7c0.8,0,2.8-0.1,3.8-0.1c1,0,1.9-0.2,2.6-0.7c0.7-0.5,1-2.8,1-2.8s0.8,0.2,0.8,0.7   l0.4-1.3c-0.2-0.7-0.1-1,0.5-2.2c0.6-1.1,0.7-1.1,1.6-2.1c0.9-0.9-0.6-0.7-0.6-1.9c0-1.1,0.4-1.5,0.9-2.7c0.5-1.1-0.1-0.9-0.5-1.2   c-0.4-0.3,0.2-0.5,0.3-1.3c0.1-1.4-1.5-2.3-1.5-2.3c3.5-0.6,3.8-1.9,3.8-1.9c-4.5-1.2-4.3-4.8-4.3-4.8c4.5,0.4,5.7-1.9,5.7-1.9   c-2.4,0.5-3.5-2.2-3.5-2.2c0.7-0.7,0.4-2.7,0.4-2.7c-1.6-3.4-5-1-5-1c0.9-2.1,4.5-2,5.6,0.2c1.1,2.2,0.2,3.3,0.2,3.3   c1.1,2.1,3.9,1.6,3.9,1.6c-2.3,4.6-6,3.7-6,3.7c1.2,3.3,4.1,2.7,4.1,2.7c-0.1,1.7-0.6,2.5-1.3,2.8c0.3,0.2,0.8,0.4,1.7,0.2   c0.6-0.2,1.3-0.5,1.9-0.8c1.4-0.6,3-1.3,5.3-1.6c2.7-0.3,4.4-0.1,6.1,0.8c0.1-0.3,0.3-0.9,0-1.4c-0.2-0.4-0.4-0.9,0.1-0.6l0.4,0.4   c0,0,1.1,1.4,1.3,2.9l0.4,0.3c0.6,0.5,1.1,1.1,1.6,1.6c0.9,1,1.7,1.9,3,2.7c0.4,0.2,0.9,0.5,1.6,0.9c1.6,0.8,4.1,0.4,5.4,1   c1.3,0.6,2.4,2.6,3,4c0.6,1.4,0.6,2.7,0.2,3.5c-0.4,0.8-0.6,1.3-1.1,1.3c-0.5,0-0.8-0.4-1.6-0.4c-0.8,0-1.2,0.4-1.5,1.1   c-0.3,0.7-0.3,2.1,0.1,2.1c0.4,0,5.1-0.4,5.7-0.4c0.6,0,1-0.7,1.1-1.4c0.1-0.7,0-1.7,0-2.2c0-0.5,1,0.3,1,0.3s0.2-1.3-0.3-2.8   C100.8,141.3,100.2,139.6,100.3,139.1"></path> 	<path class="st0" d="M84,134c-0.5-0.5-0.9-1.1-1.5-1.6c-2.2-2.1-3.8-2.5-7.4-2.1c-2.2,0.2-3.7,0.9-5,1.5c-0.7,0.3-1.4,0.6-2.1,0.8   c-1.6,0.5-2.4-0.6-2.8-1.2l-0.4,0c0,0-0.9,0.4-0.5,0.8c0.4,0.4,1.8,2.3,5.2,1.9c1.9-0.3,9-1.3,9-1.3s-3.1,1.2-1.9,4.7   c0.4,1.1,2.6,2.1,3.5,3.4c0.9,1.3,0.7,2.9,0.2,3.7c-0.5,0.7-2,1.2-2,1.2s-2-0.9-3.4,0.8c-1.4,1.7-0.6,2.6,0,2.6   c0.6,0,4.5-0.1,5.3-0.1c0.8,0,1.3-0.4,1.7-0.9c0.4-0.5,0.6-2.4,0.6-2.4s1.1,0.5,1.1,1.1c0.3-0.9,0.1-1.2,0-2.2   c-0.1-0.9,0.2-1.9,0.7-2.4c0.5-0.5,1.5-0.6,1.8-1.2c0.3-0.6-0.2-0.5-0.5-0.7c-0.3-0.2-1-0.8-0.7-1.3c0.3-0.5,1.4-0.9,1.5-1.6   c0-0.3,0.1-0.4,0.2-0.7C85.6,135.7,84.8,134.9,84,134"></path></g></svg>